<svg xmlns="http://www.w3.org/2000/svg" width="268" height="175" viewBox="0 0 268 175">
    <g fill="#FFF" fill-rule="evenodd">
        <path d="M-1271 0H409v3890h-1680z"/>
        <path fill-rule="nonzero" d="M134.225 26.696a2.099 2.099 0 0 0-.481.065l-23.094 6.3a2.1 2.1 0 0 0-1.006.613l-8.397 9.101a2.1 2.1 0 0 0 .7 3.347l7.15 3.216v12.36a2.1 2.1 0 0 0 1.225 1.904l23.094 10.501a2.099 2.099 0 0 0 1.75 0l23.093-10.5a2.1 2.1 0 0 0 1.225-1.904v-12.36l7.15-3.217a2.1 2.1 0 0 0 .7-3.347l-8.397-9.1a2.1 2.1 0 0 0-1.006-.613l-23.094-6.3a2.099 2.099 0 0 0-.612-.066zm.066 4.288l15.833 4.331-15.833 5.273-15.833-5.273 15.833-4.331zm-22.46 6.54l18.917 6.301-8.004 7.001-16.402-7.35 5.49-5.951zm44.919 0l5.49 5.951-16.403 7.351-8.004-7 18.917-6.301zm-24.559 10.59v20.804l-18.895-8.597V51.22l8.945 4.003c.748.328 1.618.191 2.23-.35l7.72-6.76zm4.2 0l7.719 6.76c.612.54 1.482.677 2.23.35l8.945-4.004v9.1l-18.895 8.598V48.113z"/>
    </g>
</svg>
